<svg 
  width="24" 
  height="24" 
  viewBox="0 0 24 24" 
  fill="none" 
  xmlns="http://www.w3.org/2000/svg"
>
  <path 
    fill-rule="evenodd" 
    clip-rule="evenodd" 
    d="M5.55 4.55C5 5.1 5 5.99 5 7.76V16.24C5 18.01 5 18.9 5.55 19.45C6.1 20 6.99 20 8.76 20H14.41C16.19 20 17.07 20 17.62 19.45C18.18 18.9 18.18 18.01 18.18 16.24V7.76C18.18 5.99 18.18 5.1 17.62 4.55C17.07 4 16.19 4 14.41 4H8.76C6.99 4 6.1 4 5.55 4.55ZM8.76 7.76C8.52 7.76 8.28 7.86 8.1 8.04C7.92 8.22 7.82 8.46 7.82 8.71C7.82 8.96 7.92 9.19 8.1 9.37C8.28 9.55 8.52 9.65 8.76 9.65H14.41C14.66 9.65 14.9 9.55 15.08 9.37C15.25 9.19 15.35 8.96 15.35 8.71C15.35 8.46 15.25 8.22 15.08 8.04C14.9 7.86 14.66 7.76 14.41 7.76H8.76ZM8.76 11.53C8.52 11.53 8.28 11.63 8.1 11.81C7.92 11.98 7.82 12.22 7.82 12.47C7.82 12.72 7.92 12.96 8.1 13.14C8.28 13.31 8.52 13.41 8.76 13.41H14.41C14.66 13.41 14.9 13.31 15.08 13.14C15.25 12.96 15.35 12.72 15.35 12.47C15.35 12.22 15.25 11.98 15.08 11.81C14.9 11.63 14.66 11.53 14.41 11.53H8.76ZM8.76 15.29C8.52 15.29 8.28 15.39 8.1 15.57C7.92 15.75 7.82 15.99 7.82 16.24C7.82 16.48 7.92 16.72 8.1 16.9C8.28 17.08 8.52 17.18 8.76 17.18H12.53C12.78 17.18 13.02 17.08 13.19 16.9C13.37 16.72 13.47 16.48 13.47 16.24C13.47 15.99 13.37 15.75 13.19 15.57C13.02 15.39 12.78 15.29 12.53 15.29H8.76Z" 
    fill="#B1B2B2"
  />
</svg>
