<svg 
  width="24" 
  height="24" 
  viewBox="0 0 24 24" 
  fill="none" 
  xmlns="http://www.w3.org/2000/svg"
>
  <path 
    d="M12 20c-1.11 0-2.15-.21-3.12-.63a8.03 8.03 0 0 1-2.54-1.71 8.03 8.03 0 0 1-1.71-2.54A8.03 8.03 0 0 1 4 12c0-1.11.21-2.15.63-3.12A8.03 8.03 0 0 1 6.34 6.34 8.03 8.03 0 0 1 8.88 4.63C9.85 4.21 10.89 4 12 4c1.11 0 2.15.21 3.12.63a8.03 8.03 0 0 1 2.54 1.71 8.03 8.03 0 0 1 1.71 2.54c.42.97.63 2.01.63 3.12 0 1.11-.21 2.15-.63 3.12a8.03 8.03 0 0 1-1.71 2.54 8.03 8.03 0 0 1-2.54 1.71A8.03 8.03 0 0 1 12 20Z" 
    fill="#F2F2F2"
  />
</svg>
